<svg xmlns="http://www.w3.org/2000/svg" width="52.595" height="61.575" viewBox="0 0 52.595 61.575">
  <g id="Grupo_7" data-name="Grupo 7" transform="translate(-450.82 -566.832)">
    <g id="Grupo_6" data-name="Grupo 6">
      <g id="Grupo_3" data-name="Grupo 3">
        <g id="Grupo_2" data-name="Grupo 2">
          <path id="Trazado_2" data-name="Trazado 2" d="M488.66,566.832A14.447,14.447,0,0,0,479.3,571.9c-2.039,2.482-3.717,6.169-3.063,9.752a12.2,12.2,0,0,0,9.44-4.823A13.548,13.548,0,0,0,488.66,566.832Z" fill="#fff"/>
        </g>
      </g>
      <g id="Grupo_5" data-name="Grupo 5">
        <g id="Grupo_4" data-name="Grupo 4">
          <path id="Trazado_3" data-name="Trazado 3" d="M501.633,587.49c-3.152-3.952-7.581-6.246-11.765-6.246-5.522,0-7.858,2.644-11.7,2.644-3.956,0-6.962-2.636-11.738-2.636-4.691,0-9.686,2.867-12.853,7.77-4.453,6.9-3.691,19.885,3.525,30.941,2.582,3.957,6.03,8.4,10.54,8.444,4.014.038,5.146-2.575,10.584-2.6s6.469,2.636,10.475,2.594c4.514-.034,8.151-4.964,10.733-8.92a44.475,44.475,0,0,0,3.976-7.466C492.974,608.037,491.3,593.19,501.633,587.49Z" fill="#fff"/>
        </g>
      </g>
    </g>
  </g>
</svg>
