<svg xmlns="http://www.w3.org/2000/svg" width="135.45" height="28.581" viewBox="0 0 135.45 28.581">
  <g id="Grupo_95" data-name="Grupo 95" transform="translate(-76.19 -61.348)">
    <g id="Grupo_12" data-name="Grupo 12">
      <g id="Grupo_9" data-name="Grupo 9">
        <g id="Grupo_8" data-name="Grupo 8">
          <path id="Trazado_4" data-name="Trazado 4" d="M88.314,65.33a1.89,1.89,0,0,1,1.254.475c2.528,2.224,8,7.49,8,11.417a9.25,9.25,0,0,1-18.5,0c0-3.927,5.468-9.193,7.995-11.417a1.893,1.893,0,0,1,1.255-.475m0-2.874a4.773,4.773,0,0,0-3.154,1.191c-4.092,3.6-8.97,8.88-8.97,13.575a12.123,12.123,0,0,0,24.247,0c0-4.695-4.878-9.974-8.97-13.575a4.772,4.772,0,0,0-3.153-1.191Z" fill="#2ab1f4"/>
        </g>
      </g>
      <g id="Grupo_11" data-name="Grupo 11">
        <g id="Grupo_10" data-name="Grupo 10">
          <path id="Trazado_5" data-name="Trazado 5" d="M87.112,85.163a.551.551,0,0,1-.1-.008,7.935,7.935,0,0,1-6.4-6.082.6.6,0,1,1,1.17-.256,6.727,6.727,0,0,0,5.427,5.157.6.6,0,0,1-.1,1.189Z" fill="#2ab1f4"/>
        </g>
      </g>
    </g>
    <g id="Grupo_22" data-name="Grupo 22">
      <g id="Grupo_14" data-name="Grupo 14">
        <g id="Grupo_13" data-name="Grupo 13">
          <path id="Trazado_6" data-name="Trazado 6" d="M126.25,68.967a3.74,3.74,0,0,1,1.056,2.11l2.228,12.337a.984.984,0,0,1-.205.853,1,1,0,0,1-.793.339,1.44,1.44,0,0,1-.863-.21,1.124,1.124,0,0,1-.367-.757l-2.111-12.305q-.177-1.128-.881-1.128a.736.736,0,0,0-.615.258,1.857,1.857,0,0,0-.294.87l-1.583,10.855A2.956,2.956,0,0,1,121,83.93a2.166,2.166,0,0,1-1.585.676,2.211,2.211,0,0,1-1.6-.676,2.916,2.916,0,0,1-.836-1.741L115.43,71.334a1.73,1.73,0,0,0-.309-.87.775.775,0,0,0-.629-.258q-.7,0-.881,1.128l-2.082,12.305a1.119,1.119,0,0,1-.366.757,1.446,1.446,0,0,1-.864.21.97.97,0,0,1-1.027-1.192l2.257-12.337a3.832,3.832,0,0,1,1.086-2.127,2.658,2.658,0,0,1,1.877-.773q2.375,0,2.814,2.963l1.555,10.6c.1.559.283.837.556.837.294,0,.48-.278.558-.837l1.553-10.6q.441-2.962,2.786-2.963A2.7,2.7,0,0,1,126.25,68.967Z" fill="#fff"/>
        </g>
      </g>
      <g id="Grupo_16" data-name="Grupo 16">
        <g id="Grupo_15" data-name="Grupo 15">
          <path id="Trazado_7" data-name="Trazado 7" d="M131.989,68.184a.861.861,0,0,1,.521.184,1,1,0,0,1,.356.438l4.7,11.17,4.02-11.1a1.065,1.065,0,0,1,.361-.48.875.875,0,0,1,.541-.2.9.9,0,0,1,.794.459,1.122,1.122,0,0,1,.1,1.013L137.7,85.328a12.534,12.534,0,0,1-1.006,2.081A6.339,6.339,0,0,1,135.12,89.2a3.554,3.554,0,0,1-2.242.729.886.886,0,0,1-.682-.312,1.072,1.072,0,0,1-.284-.75,1.094,1.094,0,0,1,.27-.729.872.872,0,0,1,.644-.333,2.533,2.533,0,0,0,1.482-.573,4.248,4.248,0,0,0,1-1.274A10.778,10.778,0,0,0,136,84.316c.194-.58.385-1.131.575-1.649l-5.464-12.955a1.229,1.229,0,0,1-.09-.468,1.072,1.072,0,0,1,.284-.75A.891.891,0,0,1,131.989,68.184Z" fill="#fff"/>
        </g>
      </g>
      <g id="Grupo_21" data-name="Grupo 21">
        <g id="Grupo_18" data-name="Grupo 18">
          <g id="Grupo_17" data-name="Grupo 17">
            <path id="Trazado_8" data-name="Trazado 8" d="M150.7,83.816a3.74,3.74,0,0,1-1.056-2.11L147.42,69.369a.984.984,0,0,1,.205-.853,1,1,0,0,1,.793-.339,1.44,1.44,0,0,1,.863.21,1.124,1.124,0,0,1,.367.757l2.111,12.305q.177,1.128.881,1.128a.739.739,0,0,0,.615-.258,1.857,1.857,0,0,0,.294-.87l1.583-10.856a2.956,2.956,0,0,1,.82-1.74,2.166,2.166,0,0,1,1.585-.676,2.211,2.211,0,0,1,1.6.676,2.921,2.921,0,0,1,.836,1.74l1.554,10.856a1.73,1.73,0,0,0,.309.87.778.778,0,0,0,.629.258q.7,0,.881-1.128l2.081-12.305a1.124,1.124,0,0,1,.367-.757,1.446,1.446,0,0,1,.864-.21.97.97,0,0,1,1.027,1.192l-2.258,12.337a3.844,3.844,0,0,1-1.085,2.127,2.662,2.662,0,0,1-1.877.773q-2.375,0-2.814-2.963l-1.555-10.6c-.1-.559-.284-.837-.556-.837-.294,0-.48.278-.558.837l-1.553,10.6q-.441,2.962-2.786,2.963A2.7,2.7,0,0,1,150.7,83.816Z" fill="#fff"/>
          </g>
        </g>
        <g id="Grupo_20" data-name="Grupo 20">
          <g id="Grupo_19" data-name="Grupo 19">
            <path id="Trazado_9" data-name="Trazado 9" d="M176.908,84.669a6.634,6.634,0,0,1-3.72-1.08,7.605,7.605,0,0,1-2.6-2.946,9.082,9.082,0,0,1-.956-4.206,8.94,8.94,0,0,1,.983-4.234,7.644,7.644,0,0,1,2.682-2.946,7.3,7.3,0,0,1,7.64,0A7.7,7.7,0,0,1,183.6,72.2a9.183,9.183,0,0,1,1.011,4.234l-.836.711a8.058,8.058,0,0,1-.9,3.835,7.044,7.044,0,0,1-2.452,2.693A6.381,6.381,0,0,1,176.908,84.669Zm.215-2.073a4.989,4.989,0,0,0,2.79-.8,5.584,5.584,0,0,0,1.94-2.2,7.354,7.354,0,0,0,0-6.322,5.73,5.73,0,0,0-1.94-2.206,5.164,5.164,0,0,0-5.566,0,5.793,5.793,0,0,0-1.966,2.206,7.218,7.218,0,0,0,0,6.322,5.644,5.644,0,0,0,1.966,2.2A5.007,5.007,0,0,0,177.123,82.6Zm6.442,1.925a1,1,0,0,1-.755-.31,1.139,1.139,0,0,1-.3-.815V78.333l.511-2.339,1.591.443V83.4a1.135,1.135,0,0,1-.3.815A1,1,0,0,1,183.565,84.521Z" fill="#fff"/>
          </g>
        </g>
        <path id="Trazado_10" data-name="Trazado 10" d="M191.755,77.251a8.732,8.732,0,0,1-3.849-1.817,3.833,3.833,0,0,1-1.154-2.885,3.975,3.975,0,0,1,1.377-3.19,5.879,5.879,0,0,1,3.931-1.175,13.5,13.5,0,0,1,3.807.55,1.151,1.151,0,0,1,.862,1.251.637.637,0,0,1-.251.55.647.647,0,0,1-.583.09,11.573,11.573,0,0,0-3.667-.609q-3.336,0-3.335,2.351a2.373,2.373,0,0,0,.667,1.724,5.087,5.087,0,0,0,2.417,1.114,8.94,8.94,0,0,1,4.127,1.862,4.393,4.393,0,0,1,1.125,3.237,3.9,3.9,0,0,1-1.431,3.205,6.264,6.264,0,0,1-4.043,1.16A11.162,11.162,0,0,1,187.892,84a1.254,1.254,0,0,1-.862-1.313.629.629,0,0,1,.279-.535.579.579,0,0,1,.583-.076,9.408,9.408,0,0,0,3.7.763q3.5,0,3.5-2.533a2.528,2.528,0,0,0-.71-1.832A5.652,5.652,0,0,0,191.755,77.251Z" fill="#fff"/>
        <path id="Trazado_11" data-name="Trazado 11" d="M201.621,84.327a1,1,0,0,1-.765.342,1.036,1.036,0,0,1-.778-.342,1.171,1.171,0,0,1-.325-.839V62.529a1.169,1.169,0,0,1,.325-.839,1.036,1.036,0,0,1,.778-.342,1,1,0,0,1,.765.342,1.2,1.2,0,0,1,.311.839V70.25c0,.02.009.031.028.031a.082.082,0,0,0,.057-.031c1.359-1.824,2.934-2.061,4.727-2.061a4.338,4.338,0,0,1,3.736,1.57q1.161,1.57,1.16,5.27v8.459a1.235,1.235,0,0,1-.3.839.95.95,0,0,1-.749.342.993.993,0,0,1-.765-.342,1.2,1.2,0,0,1-.311-.839V75.433q0-3.14-.751-4.212a2.936,2.936,0,0,0-2.59-1.073,3.918,3.918,0,0,0-2.858,1.539,4.708,4.708,0,0,0-1.387,3.155v8.646A1.2,1.2,0,0,1,201.621,84.327Z" fill="#fff"/>
      </g>
    </g>
  </g>
</svg>
